<?xml version="1.0" encoding="UTF-8"?>
<svg version="1.1" xmlns="http://www.w3.org/2000/svg" width="1650" height="1346">
<path d="M0 0 C544.5 0 1089 0 1650 0 C1650 444.18 1650 888.36 1650 1346 C1105.5 1346 561 1346 0 1346 C0 901.82 0 457.64 0 0 Z " fill="#155DFB" transform="translate(0,0)"/>
<path d="M0 0 C10.22691031 7.94527367 15.83764426 20.41224262 18 33 C19.89631521 61.44472813 15.47417037 88.83099346 4 115 C3.60312988 115.92490234 3.20625977 116.84980469 2.79736328 117.80273438 C-17.35753049 164.4288704 -49.6565769 209.9494779 -87.5 244.125 C-88.25667969 244.81078125 -89.01335937 245.4965625 -89.79296875 246.203125 C-92 248 -92 248 -94.48828125 249.421875 C-97.18941729 251.11065249 -98.51991712 252.15971634 -100 255 C-100.06086049 261.54588434 -98.5152494 267.66240924 -97 274 C-96.5582335 275.98530791 -96.11817519 277.97099658 -95.6796875 279.95703125 C-85.47307071 326.19044293 -85.47307071 326.19044293 -61 366 C-60.33742188 366.76570313 -59.67484375 367.53140625 -58.9921875 368.3203125 C-48.5805815 379.65397954 -34.71658348 385.86865398 -19.48046875 387.33984375 C-7.81359047 387.67939201 2.4414229 383.61419397 12 377 C13.53895189 373.77703108 12.96893385 372.90990817 11.75 369.375 C11.32847656 368.20710937 11.32847656 368.20710937 10.8984375 367.015625 C9.73016737 363.09430092 9.04036473 359.15824992 8.375 355.125 C8.2522168 354.39458496 8.12943359 353.66416992 8.00292969 352.91162109 C1.00323648 309.14907638 6.86108481 257.62754244 32.19726562 220.23291016 C34.59252735 216.95905033 37.23245806 213.96050817 40 211 C40.60972656 210.30003906 41.21945312 209.60007812 41.84765625 208.87890625 C52.73070427 197.02539534 68.86688228 188.89270866 84.98828125 187.796875 C106.01101596 187.50043221 124.57858807 193.02509717 140.125 207.625 C153.59829237 221.64736072 158.82369478 239.52599104 163 258 C163.57363281 257.63390625 164.14726563 257.2678125 164.73828125 256.890625 C166.59826784 255.70520107 168.46053727 254.52335644 170.32421875 253.34375 C173.11246702 251.57433 175.8798773 249.77478841 178.64453125 247.96875 C180.30457064 246.89565253 181.96472737 245.82273657 183.625 244.75 C184.41173096 244.23083008 185.19846191 243.71166016 186.0090332 243.17675781 C193.73321702 238.21460366 201.64355083 234.67549358 211 236 C213.5098833 236.804272 215.64034862 237.79507164 218 239 C218.44988281 238.29617188 218.89976562 237.59234375 219.36328125 236.8671875 C234.16980572 214.13813391 251.6253146 194.43220865 278.8125 187.2578125 C296.36549808 183.69845456 313.71707601 185.71443529 330 193 C330.33 192.01 330.66 191.02 331 190 C335.64992717 186.3699002 340.75557578 185.35048736 346.54296875 185.6171875 C351.9788717 186.46411674 356.19569436 188.79880133 359.875 192.875 C367.61983315 204.26446052 363.46926429 219.71449751 361.6875 232.5625 C361.45544282 234.27728303 361.22383725 235.99212724 360.99267578 237.70703125 C359.77118034 246.70927209 358.49105722 255.69933794 357.01977539 264.66455078 C355.82731362 271.93312829 354.85443183 279.22747718 353.875 286.52734375 C353.22351306 291.37585095 352.55353692 296.22162205 351.875 301.06640625 C349.52248948 317.87545053 347.24268692 334.69115193 345.05529785 351.52252197 C343.8384401 360.86798013 342.56881326 370.19473481 341.02294922 379.49243164 C339.84829505 386.65648532 338.99884135 393.85707469 338.13110352 401.0637207 C337.24063091 408.35876893 336.17539905 415.60929024 334.9140625 422.84960938 C334.16295675 427.30374725 333.8753134 431.48159503 334 436 C343.77472899 428.70006096 353.50267401 421.34147988 363.19995117 413.93896484 C368.6144731 409.80876732 374.04588366 405.70274423 379.5 401.625 C389.82609346 393.89744952 400.0300026 386.03713069 410.06469727 377.93359375 C412.65667534 375.84525369 415.22840665 373.8477289 418 372 C417.56377628 368.36480234 417.12650658 364.74650339 416.51464844 361.13598633 C414.85699389 351.00307683 414.60343717 341.06071246 414.625 330.8125 C414.62487915 329.92315765 414.6247583 329.03381531 414.62463379 328.11752319 C414.65829494 310.53485493 416.2941447 293.38907563 418.72467041 275.99505615 C419.1630847 272.81827766 419.57062494 269.63760306 419.98046875 266.45703125 C420.61178015 261.589772 421.26195075 256.72567482 421.9296875 251.86328125 C422.61816418 246.84621813 423.28554605 241.82715381 423.93339539 236.8046875 C424.3653844 233.46012012 424.80343458 230.11635809 425.24197388 226.77264404 C425.45247574 225.15697263 425.66046206 223.5409711 425.86569214 221.92462158 C429.48671724 193.45713337 429.48671724 193.45713337 439.125 185.0625 C445.10646901 180.77144615 451.90256741 181.44726541 459 182 C462.72097935 182.97691264 465.06249656 184.61399955 467.265625 187.87109375 C470.63455598 194.14632082 471.18729144 200.09164374 471.16796875 207.15234375 C471.16613083 207.94366196 471.16429291 208.73498016 471.16239929 209.55027771 C471.07692878 218.27769486 470.23308504 226.89047809 469.3125 235.5625 C469.13340962 237.31851524 468.95521269 239.07462178 468.77783203 240.83081055 C468.19683381 246.55509841 467.59873961 252.27754535 467 258 C462.78838109 296.44019015 462.78838109 296.44019015 460 335 C459.96003906 335.8156543 459.92007813 336.63130859 459.87890625 337.47167969 C459.24313628 352.45677793 461.61904054 367.14284864 471.5 379 C472.325 379.66 473.15 380.32 474 381 C474.825 381.763125 475.65 382.52625 476.5 383.3125 C483.00050705 386.44667304 489.50084709 386.18854838 496.2890625 383.8828125 C504.47509572 380.02943386 511.8368187 374.89216027 519.16455078 369.62036133 C527.1958349 363.90266864 534.86305488 359.33848085 545 361 C550.55720912 362.98320249 554.37716413 366.75432825 557 372 C557.99180688 380.16115376 556.60236813 386.2141828 552 393 C549.19748253 396.54843466 546.19328926 399.8012892 543 403 C542.39542969 403.61617187 541.79085937 404.23234375 541.16796875 404.8671875 C532.47838538 413.08348202 521.20827777 419.06304222 510 423 C509.36320312 423.27328125 508.72640625 423.5465625 508.0703125 423.828125 C494.73617808 429.47161758 475.20502434 430.68275949 461.3125 426.375 C452.36901116 422.74926128 444.9902657 417.59974807 438 411 C433.56089876 412.44168976 430.49698025 414.88785469 427.0625 417.9375 C422.50318417 421.89051689 417.88740464 425.73131184 413.125 429.4375 C408.19826376 433.27521165 403.30475482 437.14958437 398.4375 441.0625 C393.37279321 445.12683487 388.27089492 449.13269669 383.11376953 453.0793457 C378.49559079 456.61355265 373.9013919 460.17786162 369.3125 463.75 C368.55235596 464.34135742 367.79221191 464.93271484 367.0090332 465.54199219 C363.13979785 468.55288693 359.27321567 471.56712285 355.41015625 474.5859375 C347.99667952 480.37503275 340.5632596 486.13675943 333.0625 491.8125 C332.39395996 492.32248535 331.72541992 492.8324707 331.03662109 493.35791016 C328.37572353 495.35964184 326.18153741 496.93948753 323 498 C322.94666504 498.8554541 322.89333008 499.7109082 322.83837891 500.59228516 C322.28759795 508.89942468 321.46600401 517.12254827 320.375 525.375 C320.20750244 526.65503906 320.04000488 527.93507813 319.86743164 529.25390625 C318.29941359 541.11705873 316.60848616 552.96354865 314.89849854 564.8069458 C314.59459691 566.911886 314.29179603 569.01698546 313.99017334 571.12225342 C310.01181049 598.82285372 305.9870305 625.28506355 283 644 C267.29121252 655.42101833 249.04186915 658.71728422 230 657 C224.73408828 656.05122898 219.88243163 654.15655108 215 652 C214.03964844 651.58878906 213.07929687 651.17757812 212.08984375 650.75390625 C196.11647297 643.00854517 184.50003423 628.17450379 178 612 C177.64679688 611.21367188 177.29359375 610.42734375 176.9296875 609.6171875 C171.2548137 593.64170243 174.83509793 573.60866469 181.6875 558.625 C184.94934637 552.58363542 189.12822072 547.79978254 194 543 C194.69222656 542.3090625 195.38445312 541.618125 196.09765625 540.90625 C204.69403517 532.77986711 214.49022962 525.99888197 224 519 C224.84433594 518.37834961 225.68867187 517.75669922 226.55859375 517.11621094 C229.82162322 514.7147536 233.08508739 512.31389085 236.34985352 509.91479492 C242.31841462 505.52191902 248.20238665 501.03346744 254.06201172 496.49609375 C258.34284127 493.19136668 262.64018155 489.90823678 266.9375 486.625 C267.83839355 485.93422363 268.73928711 485.24344727 269.66748047 484.53173828 C270.95936279 483.54536377 270.95936279 483.54536377 272.27734375 482.5390625 C273.09468994 481.90709961 273.91203613 481.27513672 274.75415039 480.62402344 C277 479 277 479 280.4921875 477.2421875 C284.63046203 473.54223488 284.55364938 468.82498063 285.1875 463.5 C285.34057617 462.38882812 285.49365234 461.27765625 285.65136719 460.1328125 C285.96469435 457.85549074 286.26823695 455.57680147 286.56201172 453.296875 C286.9652884 450.2612851 287.42096143 447.24152012 287.91015625 444.21875 C288.05235596 443.33380859 288.19455566 442.44886719 288.34106445 441.53710938 C288.60450647 439.90266789 288.86982326 438.26852692 289.13745117 436.63476562 C289.94576386 431.36964088 290.1057075 426.32765797 290 421 C289.14019531 421.45890625 288.28039062 421.9178125 287.39453125 422.390625 C270.20906599 431.40446169 252.00697482 435.7585062 232.75 430.4375 C216.42081983 424.23627389 206.76966533 412.39905773 199.68359375 396.921875 C191.8929544 379.0925511 190.72531946 360.45052966 190.6875 341.25 C190.68391479 340.52149841 190.68032959 339.79299683 190.67663574 339.04241943 C190.63811053 324.48521712 191.74488655 310.16614614 195.5625 296.0625 C195.78357422 295.20205078 196.00464844 294.34160156 196.23242188 293.45507812 C197.81944017 287.36111966 197.81944017 287.36111966 199 285 C198.18660156 285.556875 197.37320312 286.11375 196.53515625 286.6875 C189.83343468 291.18272631 183.06487609 295.13934763 175.75 298.5625 C175.01144775 298.90861328 174.27289551 299.25472656 173.51196289 299.61132812 C168.28460606 302 168.28460606 302 166 302 C166.01450195 302.70092773 166.02900391 303.40185547 166.04394531 304.12402344 C166.25362648 322.43817555 164.49287965 341.4786449 159 359 C158.79004395 359.70592285 158.58008789 360.4118457 158.36376953 361.13916016 C153.86766352 376.22086943 147.81858938 390.56312012 138 403 C137.41992188 403.75539063 136.83984375 404.51078125 136.2421875 405.2890625 C124.82579199 419.18935996 107.73336722 427.24666774 90 429 C72.49141814 430.18654529 58.93796549 426.01914898 44 417 C43.13375 416.236875 42.2675 415.47375 41.375 414.6875 C39.14787004 412.7501987 39.14787004 412.7501987 36.515625 413.05078125 C33.64977892 414.13214864 31.32245817 415.52275207 28.75 417.1875 C21.84603625 421.34527743 14.59559621 423.96371115 6.92944336 426.38647461 C5.19624173 426.93759895 3.47950661 427.53988533 1.765625 428.1484375 C-3.64464551 429.37192191 -8.90707192 429.33998682 -14.4375 429.3125 C-15.59531982 429.30758545 -16.75313965 429.3026709 -17.94604492 429.29760742 C-45.93072872 428.91687671 -69.21623759 417.45190158 -88.78173828 397.70141602 C-115.53833498 369.6634863 -128.03098117 330.1010452 -136 293 C-136.25265625 291.90300781 -136.5053125 290.80601562 -136.765625 289.67578125 C-140.65201628 271.87693606 -143.10673753 253.23477357 -143.82421875 235.03125 C-143.93115471 232.05349383 -143.93115471 232.05349383 -144.49829102 229.38061523 C-145.12005755 225.19102827 -145.18080614 221.10852117 -145.203125 216.87890625 C-145.21013931 215.99480576 -145.21715363 215.11070526 -145.22438049 214.19981384 C-145.24195366 211.32065776 -145.24824424 208.44170795 -145.25 205.5625 C-145.25067474 204.57636719 -145.25134949 203.59023438 -145.25204468 202.57421875 C-145.22278329 175.58591819 -142.38303931 149.46951656 -137 123 C-136.79036621 121.94071289 -136.58073242 120.88142578 -136.36474609 119.79003906 C-128.05180184 78.41090317 -112.64075861 26.29622901 -75.74755859 1.23754883 C-53.10310988 -13.46271171 -23.10070062 -14.8547031 0 0 Z " fill="#FDF8FA" transform="translate(581,392)"/>
<path d="M0 0 C13.3605855 13.21183614 19.68084903 27.43601318 23.48510742 45.55737305 C23.66017822 46.35119385 23.83524902 47.14501465 24.015625 47.96289062 C28.10424421 70.55766772 23.7842675 98.31173617 15.48510742 119.55737305 C15.20683105 120.29713379 14.92855469 121.03689453 14.6418457 121.79907227 C8.47509045 138.05142399 0.57391284 151.97753298 -11.51489258 164.55737305 C-12.54462732 165.77909223 -13.56635009 167.00764046 -14.57739258 168.24487305 C-17.84239066 172.10768768 -21.64081172 175.3224172 -25.51489258 178.55737305 C-22.32518092 180.68384749 -19.34970219 181.82861583 -15.76489258 183.18237305 C-3.4739251 187.98946696 7.51879927 193.81318558 17.48510742 202.55737305 C18.62012695 203.47776367 18.62012695 203.47776367 19.77807617 204.41674805 C36.40701521 218.26942704 46.5823405 239.8447333 49.16088867 261.13549805 C52.46057258 300.65606754 42.9145304 337.66133564 17.23120117 368.2409668 C-4.894614 393.52211561 -35.69759174 407.1508402 -67.76513672 414.890625 C-69.83823243 415.39329963 -71.90102388 415.93875083 -73.95776367 416.50463867 C-97.41349432 422.33121054 -122.03809212 422.12628688 -146.02484131 421.89031982 C-149.29369941 421.86278689 -152.56248664 421.85444981 -155.83144283 421.84675312 C-159.81841157 421.83668934 -163.80531418 421.81700962 -167.79223633 421.7956543 C-168.517852 421.79225855 -169.24346767 421.7888628 -169.9910717 421.78536415 C-177.90263563 421.74056946 -185.80218622 421.56562629 -193.70458984 421.17138672 C-194.40327399 421.14196897 -195.10195814 421.11255121 -195.82181454 421.08224201 C-202.87776961 420.68465281 -208.32363562 418.74863001 -213.34301758 413.72924805 C-214.95030033 411.74745281 -216.25470422 409.77414002 -217.51489258 407.55737305 C-217.85391602 406.96311523 -218.19293945 406.36885742 -218.54223633 405.7565918 C-223.15944717 395.82001363 -220.41269063 382.7973791 -218.88989258 372.36987305 C-218.619464 370.42778328 -218.34903774 368.4856932 -218.07867432 366.54359436 C-217.67527381 363.66456389 -217.26271244 360.78686738 -216.85070801 357.90905762 C-215.8564929 350.94666068 -214.8808619 343.98160698 -213.90380859 337.01678467 C-213.64390772 335.16439949 -213.38365211 333.31206405 -213.12304688 331.45977783 C-211.24042007 318.06382527 -209.50566342 304.65860662 -207.91333008 291.2253418 C-205.5981112 271.71962275 -202.91891638 252.26833688 -200.08959961 232.83129883 C-198.30760708 220.409507 -196.78355386 207.95560324 -195.26513672 195.49926758 C-193.6010073 181.90153218 -193.6010073 181.90153218 -192.54223633 175.2800293 C-191.16019333 166.57219675 -190.15477608 157.81476856 -189.08563232 149.0642395 C-187.16805165 133.39361386 -185.18124177 117.74047102 -182.88989258 102.11987305 C-181.06090965 89.64071747 -179.44939119 77.14941864 -177.96362305 64.625 C-176.44462907 51.83353717 -174.75948696 39.06712174 -173.01928711 26.30395508 C-172.5824553 23.0592208 -172.15745592 19.81339635 -171.73959351 16.56619263 C-171.31681977 13.29159531 -170.88331765 10.01840615 -170.45239258 6.74487305 C-170.3022168 5.5528125 -170.15204102 4.36075195 -169.99731445 3.13256836 C-167.74461416 -13.73367908 -167.74461416 -13.73367908 -162.70239258 -19.31762695 C-162.24219727 -19.85129883 -161.78200195 -20.3849707 -161.30786133 -20.93481445 C-155.76148545 -25.59908698 -149.70904449 -26.25891628 -142.76489258 -27.06762695 C-141.22418091 -27.254823 -141.22418091 -27.254823 -139.65234375 -27.44580078 C-94.47301249 -32.73726361 -35.26380897 -33.70982841 0 0 Z " fill="#FDF8FA" transform="translate(332.514892578125,401.442626953125)"/>
<path d="M0 0 C17.03596009 -0.59305531 33.22310229 3.24386128 46.58984375 14.3828125 C56.41061168 23.81012018 61.22846226 37.2750227 61.74609375 50.7265625 C61.76281323 53.38694681 61.75603278 56.03629666 61.71484375 58.6953125 C61.70963715 59.39230255 61.70443054 60.0892926 61.69906616 60.80740356 C61.59332412 72.93277942 60.31809843 84.45582975 57.21484375 96.1953125 C57.01697266 96.96391602 56.81910156 97.73251953 56.61523438 98.52441406 C54.20401211 107.72841622 51.10748204 116.50858284 47.21484375 125.1953125 C46.59378056 126.65310478 45.97410049 128.11148674 45.35546875 129.5703125 C30.59406749 163.90721863 8.72083375 195.08052267 -16.44921875 222.61328125 C-17.71610989 224.01364085 -18.97699533 225.42001657 -20.203125 226.85620117 C-25.19311065 232.68561664 -30.53998658 238.13628973 -35.96289062 243.55834961 C-37.52375952 245.12139984 -39.07643513 246.69228615 -40.62890625 248.26367188 C-55.92884148 263.65405052 -55.92884148 263.65405052 -64.81640625 268.55859375 C-71.61071373 272.2758758 -71.61071373 272.2758758 -75.69433594 278.59228516 C-77.0867631 284.38423446 -77.59653735 290.25122139 -77.78515625 296.1953125 C-76.81280029 296.17436523 -75.84044434 296.15341797 -74.83862305 296.13183594 C-71.18024828 296.05863018 -67.52193614 296.01322506 -63.86303711 295.97558594 C-62.2890326 295.95565166 -60.71510036 295.92849379 -59.14135742 295.89355469 C-38.20628809 295.44090454 -38.20628809 295.44090454 -30.80004883 301.9362793 C-26.36335921 306.70807254 -24.26393475 311.38664222 -24.4765625 318.015625 C-25.29019429 323.76254318 -27.74619663 328.59940625 -31.97265625 332.5703125 C-38.71354444 337.60438659 -45.97579173 338.64606181 -54.1953125 338.48828125 C-55.47467934 338.48191399 -55.47467934 338.48191399 -56.77989197 338.47541809 C-59.46948575 338.4587988 -62.15829394 338.42118025 -64.84765625 338.3828125 C-66.68553595 338.36774393 -68.52342756 338.35405936 -70.36132812 338.34179688 C-74.83623421 338.30895055 -79.31056265 338.25728748 -83.78515625 338.1953125 C-86.95429395 359.71764633 -90.09672125 381.24384088 -93.18722534 402.77761841 C-93.50251598 404.97277126 -93.81853573 407.16781951 -94.13528442 409.36276245 C-94.58054672 412.44988121 -95.02307074 415.53738025 -95.46484375 418.625 C-95.59893143 419.55130722 -95.7330191 420.47761444 -95.87117004 421.43199158 C-96.05264839 422.70678123 -96.05264839 422.70678123 -96.23779297 424.00732422 C-96.3971785 425.11755447 -96.3971785 425.11755447 -96.55978394 426.25021362 C-96.84270462 428.36563766 -96.84270462 428.36563766 -96.78515625 431.1953125 C-95.80160156 430.4425 -94.81804687 429.6896875 -93.8046875 428.9140625 C-85.63836075 422.66546414 -77.46568776 416.4253044 -69.28515625 410.1953125 C-57.93498764 401.55061718 -46.59069178 392.89833614 -35.28515625 384.1953125 C-34.2590625 383.40898438 -33.23296875 382.62265625 -32.17578125 381.8125 C-29.60684316 379.83865286 -27.06145161 377.83662551 -24.51953125 375.828125 C-23.02479548 374.65878271 -21.53000431 373.48951124 -20.03515625 372.3203125 C-19.35001953 371.77246094 -18.66488281 371.22460938 -17.95898438 370.66015625 C-10.28064129 364.68565299 -3.37056715 361.43746056 6.48046875 361.8125 C12.01258402 362.58699614 15.86689629 366.0355799 19.23046875 370.37109375 C21.62307083 374.80500316 21.8916562 379.70531113 20.58203125 384.5234375 C19.60855225 386.8630593 18.48394471 389.00252338 17.21484375 391.1953125 C16.82425781 391.91332031 16.43367188 392.63132812 16.03125 393.37109375 C9.58890385 404.13382633 -1.2943885 411.75419822 -11.078125 419.30859375 C-15.05879718 422.38858429 -18.95295862 425.57026831 -22.84765625 428.7578125 C-29.14449589 433.8977072 -35.53163808 438.89048941 -41.99365234 443.82177734 C-45.50112597 446.51093606 -48.9854823 449.22991767 -52.47265625 451.9453125 C-53.23070557 452.53530029 -53.98875488 453.12528809 -54.76977539 453.7331543 C-57.10847585 455.55356546 -59.44686455 457.37437633 -61.78515625 459.1953125 C-79.46687333 472.96488545 -79.46687333 472.96488545 -86.59765625 478.4453125 C-87.51796631 479.17044037 -88.43827637 479.89556824 -89.38647461 480.64266968 C-91.58397999 482.33898212 -93.72951013 483.77587795 -96.11010742 485.2394104 C-101.90897278 489.00906461 -106.13386301 492.05441541 -107.81072998 498.99365807 C-108.48722901 502.80469007 -108.90482182 506.61859785 -109.28515625 510.46875 C-109.49598505 512.15924071 -109.71216713 513.8490713 -109.93334961 515.53823853 C-110.50122205 519.97766105 -111.00134089 524.42205063 -111.48553467 528.87127686 C-111.97704667 533.29888989 -112.5240609 537.71948622 -113.0703125 542.140625 C-113.28458582 543.88095118 -113.49877888 545.62128724 -113.71289062 547.3616333 C-113.81819092 548.21639503 -113.92349121 549.07115677 -114.03198242 549.95182037 C-114.34661923 552.52277633 -114.65537671 555.09438197 -114.96289062 557.66619873 C-116.18151192 567.79375017 -117.54867708 577.8687146 -119.28515625 587.921875 C-119.46248291 588.99214935 -119.63980957 590.06242371 -119.82250977 591.16513062 C-123.36390472 610.66630598 -132.65405941 628.29135447 -148.78515625 640.1328125 C-164.65135825 650.46721666 -182.35296208 654.19782341 -201.06640625 651.76953125 C-219.55415637 647.71912363 -235.20199569 635.63176084 -245.78515625 620.1953125 C-252.32699733 609.12450452 -255.34681187 598.84313893 -255.22265625 586.0078125 C-255.21508301 584.90937012 -255.20750977 583.81092773 -255.19970703 582.67919922 C-254.83303941 564.50372612 -248.89643903 549.93366958 -235.78515625 537.1953125 C-228.98609546 530.95836115 -221.74093799 525.2953458 -214.3203125 519.8203125 C-209.74375127 516.44086416 -205.24043669 512.96515587 -200.72265625 509.5078125 C-193.20214486 503.76238267 -185.62510617 498.1037835 -177.98828125 492.51416016 C-170.7378094 487.19359331 -163.59070926 481.74071463 -156.4609375 476.25976562 C-155.61789062 475.61330078 -154.77484375 474.96683594 -153.90625 474.30078125 C-153.15786865 473.72481201 -152.4094873 473.14884277 -151.63842773 472.55541992 C-149.78515625 471.1953125 -149.78515625 471.1953125 -147.78515625 470.1953125 C-147.04485092 467.27141749 -146.44333059 464.40934984 -145.91015625 461.4453125 C-145.65407593 460.06291382 -145.65407593 460.06291382 -145.39282227 458.65258789 C-143.2984335 446.99590059 -141.799963 435.25068394 -140.23339844 423.51416016 C-138.48104148 410.53946491 -136.37851292 397.61840657 -134.28515625 384.6953125 C-132.11885181 371.32684713 -132.11885181 371.32684713 -130.03515625 357.9453125 C-129.91978516 357.20345703 -129.80441406 356.46160156 -129.68554688 355.69726562 C-128.81110574 349.88355702 -128.27307352 344.05304553 -127.78515625 338.1953125 C-128.73769287 338.21102295 -129.69022949 338.2267334 -130.67163086 338.24291992 C-134.24429694 338.29768947 -137.81692679 338.33183134 -141.38989258 338.36010742 C-142.9290188 338.37508793 -144.46810313 338.3954796 -146.00708008 338.42163086 C-165.2279639 338.73979544 -165.2279639 338.73979544 -172.59765625 333.0078125 C-177.40411145 326.82808439 -179.49839726 321.82731274 -179.16796875 313.875 C-178.36571331 308.25921195 -176.07855135 304.08110815 -171.84765625 300.3203125 C-165.79877857 296.12313207 -161.05888646 295.91911059 -153.890625 296 C-152.94326981 296.0028299 -151.99591461 296.00565979 -151.01985168 296.00857544 C-148.00398959 296.01974063 -144.98842809 296.04483861 -141.97265625 296.0703125 C-139.92383242 296.08034703 -137.87500393 296.08947205 -135.82617188 296.09765625 C-130.81238477 296.11966801 -125.79882142 296.15417279 -120.78515625 296.1953125 C-120.11929717 290.87636659 -120.11929717 290.87636659 -119.4597168 285.55664062 C-118.15571733 275.00077047 -116.72182913 264.48931145 -114.91015625 254.0078125 C-113.14149727 243.7648656 -111.68504288 233.49349767 -110.28515625 223.1953125 C-108.76448668 212.02023329 -107.15267292 200.87999115 -105.22558594 189.76611328 C-104.38192222 184.87437328 -103.60018106 179.98515938 -102.9296875 175.06640625 C-99.09862943 147.04166189 -93.51849439 119.12395432 -84.78515625 92.1953125 C-84.52444336 91.3604834 -84.26373047 90.5256543 -83.99511719 89.66552734 C-75.90415261 63.84836316 -64.01117029 39.44976739 -44.78515625 20.1953125 C-44.058125 19.45667969 -43.33109375 18.71804688 -42.58203125 17.95703125 C-30.52856592 6.46159672 -16.38842533 0.84563598 0 0 Z " fill="#FDF8FA" transform="translate(1284.78515625,381.8046875)"/>
<path d="M0 0 C5.28682388 3.1523305 8.80319892 6.41514943 11.08984375 12.24609375 C12.75038955 20.68720159 11.64885343 29.10228718 10.52734375 37.55859375 C10.32322876 39.14812866 10.32322876 39.14812866 10.11499023 40.76977539 C9.33678549 46.70431544 8.44663976 52.60322942 7.40234375 58.49609375 C3.85403707 78.71163192 1.1767327 99.52772911 0.83984375 120.05859375 C0.80914795 121.66492676 0.80914795 121.66492676 0.77783203 123.30371094 C-0.38679321 158.86978396 -0.38679321 158.86978396 15.34375 189.640625 C20.27948787 194.11242928 25.7402762 195.66563516 32.27734375 195.5 C40.73282874 194.04349115 48.76552256 188.91676181 53.83984375 182.05859375 C59.57742194 173.20987297 64.00822207 163.87975591 67.83984375 154.05859375 C68.15066895 153.26694824 68.46149414 152.47530273 68.78173828 151.65966797 C71.53278191 144.41626367 73.47846622 137.10395255 75.21484375 129.55859375 C75.36191772 128.92386139 75.5089917 128.28912903 75.66052246 127.63516235 C81.92429443 100.45034168 86.86574239 72.44945461 88.3203125 44.57421875 C88.37945328 43.47087692 88.37945328 43.47087692 88.43978882 42.34524536 C88.63073225 38.72592529 88.80034271 35.10785624 88.93066406 31.48583984 C89.35502995 21.47300306 90.21088461 12.03154457 97.90234375 4.93359375 C103.68967649 0.29039781 109.66284448 0.40365846 116.83984375 1.05859375 C122.19698489 2.64589483 125.84559404 5.28997385 128.83984375 10.05859375 C131.67754991 15.62838425 132.38487787 20.08979084 132.33984375 26.30859375 C132.33557373 27.24840088 132.33130371 28.18820801 132.3269043 29.15649414 C132.04168432 41.86238911 129.8362171 54.38449717 127.9055481 66.91993713 C126.67572614 74.98016379 125.65519422 83.06384839 124.64730835 91.15432739 C122.941313 104.84140529 121.0823737 118.49374241 119.02734375 132.13259888 C117.30491464 143.58927556 115.78336847 155.063635 114.33984375 166.55859375 C112.76429774 179.10086299 111.08041947 191.61853486 109.21484375 204.12109375 C109.11015778 204.82317963 109.0054718 205.5252655 108.89761353 206.24862671 C108.39622223 209.60917777 107.8941444 212.96962608 107.39208984 216.33007812 C106.57599772 221.83996271 105.79078226 227.35368532 105.02734375 232.87109375 C104.90343262 233.74838135 104.77952148 234.62566895 104.65185547 235.52954102 C104.12191596 239.4034066 103.68870702 243.13699337 103.83984375 247.05859375 C104.71125 246.36894531 105.58265625 245.67929687 106.48046875 244.96875 C113.03745503 239.79091186 119.63272998 234.68071254 126.33203125 229.6875 C133.66922226 224.2054137 140.93058521 218.62161412 148.2109375 213.06445312 C150.67979204 211.18071345 153.15022119 209.29906017 155.62109375 207.41796875 C164.44914214 200.69337653 164.44914214 200.69337653 173.15234375 193.80859375 C196.50533727 175.03071821 196.50533727 175.03071821 208.83984375 176.05859375 C213.95950875 177.67430552 218.11082418 180.29098222 220.984375 184.890625 C223.23704892 190.59945618 222.68919932 196.31151485 220.90625 202.078125 C215.23692149 214.91402308 203.57024855 223.5654162 192.83984375 232.05859375 C190.91688206 233.62006143 188.99930575 235.18801238 187.08154297 236.75585938 C179.07931394 243.29155202 170.99115344 249.71026108 162.83984375 256.05859375 C162.15696289 256.5906543 161.47408203 257.12271484 160.77050781 257.67089844 C156.24174816 261.19824247 151.7094918 264.72106983 147.17626953 268.24267578 C144.83267322 270.06416683 142.49034948 271.88728152 140.1484375 273.7109375 C131.40063286 280.52214206 122.63571176 287.30956295 113.83984375 294.05859375 C111.50600478 295.84960296 109.17278626 297.64141705 106.83984375 299.43359375 C105.80859375 300.22507812 104.77734375 301.0165625 103.71484375 301.83203125 C102.76609375 302.56679688 101.81734375 303.3015625 100.83984375 304.05859375 C99.98527588 304.64431152 99.13070801 305.2300293 98.25024414 305.83349609 C95.32245965 308.53620326 94.99393291 309.99213619 94.3984375 313.88671875 C94.20967041 315.06153809 94.02090332 316.23635742 93.82641602 317.44677734 C93.64522217 318.72117676 93.46402832 319.99557617 93.27734375 321.30859375 C93.07028734 322.6598768 92.86184488 324.01094811 92.65209961 325.36181641 C91.02951571 335.99202213 89.71817535 346.66405335 88.43164062 357.33935547 C87.15999649 367.83675059 85.71567528 378.30479753 84.17062378 388.76544189 C83.91154167 390.52314725 83.65506752 392.28123928 83.40139771 394.03973389 C79.99454558 417.59242129 73.18537694 436.06966289 54.65234375 451.80859375 C37.68654731 464.21369222 19.04428332 468.19232871 -1.65625 465.625 C-19.34396886 461.8431637 -33.83738952 449.40887228 -44.16015625 435.05859375 C-54.53921668 418.6529821 -56.08853628 400.43239261 -52.06640625 381.7890625 C-47.41902649 362.6586846 -34.03587627 351.03492653 -19.01611328 339.5 C-16.58147359 337.60916696 -14.19006444 335.66769413 -11.796875 333.72485352 C-4.89060085 328.12644579 2.18583154 322.80091141 9.36328125 317.5559082 C16.37301892 312.42688315 23.30618078 307.20226921 30.17382812 301.88427734 C34.24378595 298.74187358 38.31779018 295.6937766 42.6171875 292.87109375 C51.51304176 287.18754445 51.51304176 287.18754445 56.08984375 278.05859375 C56.29451355 276.21863291 56.49115798 274.37691349 56.62255859 272.53027344 C57.00723172 268.15450859 57.70873533 263.82106998 58.34863281 259.4765625 C58.71178778 256.98891896 59.06186161 254.49932308 59.39746094 252.0078125 C60.22263547 245.89915852 61.18180795 239.99804645 62.83984375 234.05859375 C62.11023437 234.38472656 61.380625 234.71085938 60.62890625 235.046875 C42.03045908 242.83066956 19.06070464 245.71802032 -0.09960938 238.30859375 C-16.26073144 231.32000042 -27.49888663 218.66278563 -34.1015625 202.4296875 C-35.9412512 197.68898764 -37.59150015 192.89500465 -39.16015625 188.05859375 C-39.48886719 187.05570313 -39.81757812 186.0528125 -40.15625 185.01953125 C-41.00265448 182.04615178 -41.60666414 179.10105981 -42.16015625 176.05859375 C-42.29405762 175.37120117 -42.42795898 174.68380859 -42.56591797 173.97558594 C-45.39101595 158.80458734 -45.43013879 143.62228352 -45.41015625 128.24609375 C-45.4093808 127.2445224 -45.40860535 126.24295105 -45.4078064 125.21102905 C-45.36670284 106.84862724 -44.85155684 88.72624884 -42.11328125 70.55053711 C-41.78365521 68.36112367 -41.46699661 66.17012634 -41.15234375 63.97851562 C-34.58305507 18.79365301 -34.58305507 18.79365301 -21.16015625 5.05859375 C-14.84886016 0.48321407 -7.79347427 -3.39643273 0 0 Z " fill="#FDF8FA" transform="translate(1357.16015625,575.94140625)"/>
<path d="M0 0 C26.87936779 -0.75634585 54.53333158 0.79865126 81.01806641 5.64257812 C82.96917738 5.99444145 84.92806104 6.30228897 86.88671875 6.609375 C108.40836078 10.29751428 132.33031656 20.58431519 145.5 38.59765625 C154.70414399 53.3386681 155.34200186 71.50274535 152.38671875 88.3984375 C151.49486937 91.76939243 150.40567457 94.80959254 149 98 C148.72091797 98.64324219 148.44183594 99.28648437 148.15429688 99.94921875 C136.47008796 126.39373405 115.1596421 140.75729252 89 151 C63.53153579 160.58352577 35.42070216 163.55690812 8.40405273 163.28125 C5.24776688 163.24934567 2.09198002 163.24018483 -1.06445312 163.234375 C-3.08854781 163.22522962 -5.11263743 163.21486187 -7.13671875 163.203125 C-8.07198898 163.19887512 -9.00725922 163.19462524 -9.97087097 163.19024658 C-10.83730728 163.18063904 -11.70374359 163.17103149 -12.59643555 163.16113281 C-13.73147774 163.15089081 -13.73147774 163.15089081 -14.88945007 163.14044189 C-17.03325687 162.99778699 -18.93693469 162.58602115 -21 162 C-21.29433471 154.40616444 -20.29054465 147.13917795 -19.1491394 139.6512146 C-18.55969519 135.7750752 -17.99420265 131.89546221 -17.4296875 128.015625 C-17.31110886 127.20175827 -17.19253021 126.38789154 -17.07035828 125.54936218 C-15.73201072 116.2780514 -14.57997325 106.98462661 -13.4375 97.6875 C-13.01864282 94.29031348 -12.5992772 90.89318987 -12.1796875 87.49609375 C-12.02802124 86.26731758 -12.02802124 86.26731758 -11.87329102 85.01371765 C-10.52512364 74.12067063 -9.06797701 63.24259474 -7.59179688 52.36621094 C-7.14555165 49.07809838 -6.70215491 45.78961011 -6.25976562 42.50097656 C-5.58237117 37.46547793 -4.90245153 32.43032562 -4.22091675 27.39538574 C-3.95014806 25.39295588 -3.68005975 23.3904339 -3.41067505 21.38781738 C-3.03247377 18.57855722 -2.65136369 15.76970611 -2.26953125 12.9609375 C-2.15615417 12.11443634 -2.0427771 11.26793518 -1.92596436 10.39578247 C-1.81867004 9.6108139 -1.71137573 8.82584534 -1.60083008 8.01708984 C-1.50852615 7.33480316 -1.41622223 6.65251648 -1.32112122 5.94955444 C-0.98851656 3.93028302 -0.52295362 1.97775756 0 0 Z " fill="#165DFB" transform="translate(183,615)"/>
<path d="M0 0 C0.61101562 0.47953125 1.22203125 0.9590625 1.8515625 1.453125 C2.9034375 2.195625 3.9553125 2.938125 5.0390625 3.703125 C12.39458826 10.89519463 16.83268312 20.63999003 17.25 30.9140625 C17.26295178 32.8853896 17.25433001 34.85695092 17.2265625 36.828125 C17.21641113 37.87742187 17.20625977 38.92671875 17.19580078 40.0078125 C16.66358416 67.20449448 8.38281935 91.92213142 -11.53125 111.19921875 C-26.18499847 123.81893945 -44.35243372 130.90068028 -63.1484375 134.453125 C-64.251875 134.66582031 -65.3553125 134.87851562 -66.4921875 135.09765625 C-79.40037408 137.40981854 -92.07743216 137.57503075 -105.1484375 137.453125 C-105.26682044 130.9684614 -104.84679061 124.77199358 -104.01855469 118.34472656 C-103.89818344 117.37562347 -103.77781219 116.40652039 -103.65379333 115.40805054 C-103.2563168 112.2192545 -102.85092983 109.0315199 -102.4453125 105.84375 C-102.16299863 103.59443502 -101.88112599 101.34506463 -101.59967041 99.09564209 C-101.00780685 94.37452763 -100.41233175 89.6538883 -99.81396484 84.93359375 C-99.05822076 78.97151204 -98.30868509 73.00867297 -97.56153107 67.04550934 C-94.79204019 44.94767884 -92.01108244 22.85416226 -88.88378906 0.80371094 C-88.21175756 -3.97180817 -87.65450766 -8.75102092 -87.1484375 -13.546875 C-62.18423465 -18.67931802 -20.99262502 -15.56756462 0 0 Z " fill="#165DFB" transform="translate(294.1484375,429.546875)"/>
<path d="M0 0 C1.75957031 -0.03867187 1.75957031 -0.03867187 3.5546875 -0.078125 C7.72218343 0.30488338 10.38464752 1.43243741 14.125 3.25 C13.17308358 25.27537642 9.8140111 46.73756373 5.75 68.375 C5.46697021 69.88549927 5.46697021 69.88549927 5.17822266 71.42651367 C3.09376664 82.50007365 0.89831826 93.54796828 -1.4609375 104.56640625 C-1.65424652 105.48056305 -1.84755554 106.39471985 -2.04672241 107.33657837 C-5.16594332 121.67855811 -8.53320299 135.25352323 -19.875 145.25 C-21.03322266 146.39275391 -21.03322266 146.39275391 -22.21484375 147.55859375 C-30.36113792 155.38801424 -41.59673572 164.41162565 -53.375 164.625 C-57.92919194 164.48722613 -60.47094487 163.41656291 -63.875 160.25 C-70.7494129 150.31249836 -71.37675647 138.15942182 -71.25 126.5 C-71.24501495 125.82258759 -71.24002991 125.14517517 -71.2348938 124.44723511 C-71.018166 99.16936392 -66.92190966 74.2275721 -55.875 51.25 C-55.59043945 50.64285156 -55.30587891 50.03570313 -55.01269531 49.41015625 C-45.58989878 29.37328735 -33.28989889 9.83014161 -11.875 1.25 C-7.91240544 0.21684828 -4.0872464 0.05366188 0 0 Z " fill="#165EFB" transform="translate(885.875,615.75)"/>
<path d="M0 0 C4.421245 3.10015586 6.97882628 6.74897883 8.6875 11.875 C11.95021107 58.14131267 -19.88284292 103.16092709 -47.3125 137.875 C-48.09052979 138.865 -48.09052979 138.865 -48.88427734 139.875 C-56.27197749 149.23762989 -63.90169506 158.40618951 -72.3125 166.875 C-72.6425 166.875 -72.9725 166.875 -73.3125 166.875 C-73.46887816 155.02935438 -73.10710203 143.36179517 -72.0625 131.5625 C-71.99658661 130.79551788 -71.93067322 130.02853577 -71.86276245 129.23831177 C-63.81509602 36.15231767 -63.81509602 36.15231767 -33.3125 7.875 C-24.09221002 0.85718285 -11.31119837 -6.49346573 0 0 Z " fill="#175EFB" transform="translate(551.3125,427.125)"/>
<path d="M0 0 C4.92866329 4.92866329 6.97723328 10.26353253 7.00537109 17.19580078 C6.98297363 17.97681152 6.96057617 18.75782227 6.9375 19.5625 C6.92283691 20.39249512 6.90817383 21.22249023 6.89306641 22.07763672 C5.98396243 52.24020112 -10.18307566 81.88472012 -26.5 106.5 C-26.94553223 107.17530762 -27.39106445 107.85061523 -27.85009766 108.54638672 C-38.88865599 125.16976441 -50.87127187 141.37618158 -64.3359375 156.11328125 C-66.33015612 158.31268121 -68.26255607 160.55259887 -70.1875 162.8125 C-73.04514025 166.10412767 -76.06607156 168.81986073 -79.5 171.5 C-78.7969731 165.77173842 -78.03588378 160.05455228 -77.23046875 154.33984375 C-77.10964432 153.48104614 -76.98881989 152.62224854 -76.86433411 151.73742676 C-73.14086525 125.35106598 -69.16814492 99.3321567 -62.5 73.5 C-62.2225293 72.41799316 -61.94505859 71.33598633 -61.65917969 70.22119141 C-58.26397536 57.12734339 -54.53625982 44.62653539 -48.5 32.5 C-47.93410156 31.34242188 -47.36820313 30.18484375 -46.78515625 28.9921875 C-40.44360018 16.59667428 -31.8498079 4.01937596 -18.21875 -0.83984375 C-11.92993013 -2.36687041 -5.98584452 -2.56536194 0 0 Z " fill="#175EFB" transform="translate(1297.5,427.5)"/>
<path d="M0 0 C3.12633884 1.56316942 3.63580164 4.30416011 5.0625 7.4375 C12.31611298 22.49930113 24.57914496 31.14698639 40 37 C49.73394935 40.22140731 59.84945223 41.04133716 70 42 C70.96746163 63.64247497 66.91857641 86.58038191 55 105 C54.62488281 105.58910156 54.24976563 106.17820312 53.86328125 106.78515625 C49.98286627 112.1088133 43.77395695 115.11302153 38 118 C28.77614832 118.80708702 20.64622973 118.78195464 13 113 C6.9731044 107.59070148 3.07685952 101.43758848 0 94 C-0.35835937 93.154375 -0.71671875 92.30875 -1.0859375 91.4375 C-12.14711219 62.16281211 -7.42926119 29.45306088 0 0 Z " fill="#175EFB" transform="translate(635,660)"/>
<path d="M0 0 C0.25383897 7.0984254 -0.58060911 13.98889824 -1.48925781 21.02416992 C-1.74616092 23.03248832 -1.98676247 25.04231214 -2.2265625 27.05273438 C-4.05890514 41.77507582 -6.94930973 57.09386493 -16.375 69 C-22.19151359 73.4316294 -27.09942208 75.71864117 -34.5390625 75.38671875 C-39.73661364 74.56996071 -43.52324452 72.39693086 -47.3125 68.8125 C-51.12615496 62.45640839 -53.30129888 55.41990613 -52 48 C-47.65167584 35.25699447 -37.41476003 27.41326492 -27.07568359 19.58007812 C-23.17062725 16.60742173 -19.3085026 13.57926936 -15.4375 10.5625 C-13.24781932 8.86268336 -11.05813796 7.16288167 -8.86669922 5.46533203 C-7.25544098 4.2005175 -5.67353212 2.89847822 -4.09765625 1.58984375 C-2 0 -2 0 0 0 Z " fill="#195FFB" transform="translate(1402,922)"/>
<path d="M0 0 C-0.55002728 9.69951949 -1.5485588 19.25761007 -2.93701172 28.8684082 C-3.24995895 31.0622122 -3.54101494 33.2582718 -3.83203125 35.45507812 C-5.62540198 48.31114238 -8.83065216 62.01448159 -18.4375 71.375 C-24.30815402 75.09785377 -30.17723708 75.85284536 -37 75 C-42.29610594 73.32229521 -46.06002009 70.79107838 -49 66 C-51.98964055 60.21485141 -53.03557714 54.45770275 -52 48 C-47.74258876 35.82817042 -38.78057858 28.99366163 -28.88769531 21.44824219 C-26.44843975 19.57684229 -24.03796363 17.67044587 -21.62768555 15.76196289 C-1.70951417 0 -1.70951417 0 0 0 Z " fill="#195FFB" transform="translate(1128,913)"/>
<path d="M0 0 C1.29073558 3.87220673 0.66975478 7.119382 0.14453125 11.078125 C0.04162277 11.88175476 -0.06128571 12.68538452 -0.16731262 13.5133667 C-0.38840297 15.22193194 -0.61308767 16.9300353 -0.84106445 18.63769531 C-1.18049096 21.19714821 -1.50214841 23.7583829 -1.82226562 26.3203125 C-6.22263648 60.42577658 -6.22263648 60.42577658 -16.09375 70.0390625 C-23.21867799 75.48601832 -29.07641556 75.68873303 -38 75 C-43.53996143 73.52580687 -46.29602826 69.66148768 -49.0546875 64.90234375 C-51.88604821 59.20452281 -51.7110679 53.20762278 -51 47 C-46.02051938 32.93908955 -30.75786529 23.22580147 -19.29638672 14.71435547 C-15.31529313 11.74229092 -11.37922338 8.71145892 -7.4375 5.6875 C-5.99889234 4.58698538 -4.56010879 3.48670062 -3.12109375 2.38671875 C-2.09113281 1.59910156 -1.06117188 0.81148437 0 0 Z " fill="#185FFB" transform="translate(854,928)"/>
<path d="M0 0 C4.01369492 3.71794898 6.73149327 7.028819 7.23828125 12.63671875 C7.40104741 19.32726455 7.1630586 24.56624037 3 30 C-2.21438485 35.41584972 -6.08324021 37.16125864 -13.6875 37.375 C-20.16391899 37.32821472 -24.2204093 36.40543082 -29 32 C-34.06036925 26.67329552 -35.49144611 21.85304615 -35.30859375 14.625 C-34.46808079 7.47532012 -31.27422122 2.58799918 -25.78125 -1.90625 C-18.17167624 -6.57879529 -7.08795266 -4.73447712 0 0 Z " fill="#FBF7FA" transform="translate(1054,507)"/>
<path d="M0 0 C6.39085909 2.74253402 10.1267492 6.74041789 13 13 C15.82135081 20.33932474 18.16805278 27.39604179 18.0625 35.3125 C18.05347656 36.19550781 18.04445313 37.07851563 18.03515625 37.98828125 C18.02355469 38.65214844 18.01195312 39.31601562 18 40 C10.28800793 40.73838222 4.31142344 39.68724021 -2 35 C-4.51002933 32.22047279 -6.29534065 29.32492963 -8 26 C-8.50853516 25.05833984 -8.50853516 25.05833984 -9.02734375 24.09765625 C-11.77380022 18.11114053 -11.90605426 11.44495203 -11 5 C-8.01792971 0.35147866 -5.45152062 -1.06892561 0 0 Z " fill="#1C61FB" transform="translate(687,623)"/>
</svg>
